<?xml version="1.0" standalone="no"?>
<!DOCTYPE svg PUBLIC "-//W3C//DTD SVG 20010904//EN"
 "http://www.w3.org/TR/2001/REC-SVG-20010904/DTD/svg10.dtd">
<svg version="1.0" xmlns="http://www.w3.org/2000/svg"
 width="500.000000pt" height="500.000000pt" viewBox="0 0 500.000000 500.000000"
 preserveAspectRatio="xMidYMid meet">

<g transform="translate(0.000000,500.000000) scale(0.100000,-0.100000)"
fill="#000000" stroke="none">
<path d="M0 2500 l0 -2500 2500 0 2500 0 0 2500 0 2500 -2500 0 -2500 0 0
-2500z m2650 2033 c-1 -31 -284 -746 -297 -751 -7 -2 -13 2 -13 9 0 6 60 168
134 358 74 190 139 358 145 374 12 30 31 37 31 10z m-330 -132 c0 -5 -62 -58
-137 -117 -76 -59 -141 -110 -145 -114 -4 -3 57 -57 137 -119 137 -107 162
-131 132 -131 -16 0 -311 232 -311 245 0 13 295 245 312 245 6 0 12 -4 12 -9z
m531 -108 c82 -64 149 -122 149 -128 0 -14 -282 -238 -305 -243 -38 -8 -5 25
124 125 77 59 140 111 140 115 1 3 -62 56 -139 117 -129 103 -157 131 -129
131 6 0 78 -53 160 -117z m145 -614 c17 -5 43 -22 58 -38 38 -40 27 -76 -34
-108 -42 -22 -50 -23 -326 -23 -209 0 -285 -3 -290 -12 -4 -7 -12 -111 -18
-232 -9 -210 4 -988 21 -1228 l6 -88 257 0 c267 0 305 -5 348 -43 27 -25 29
-68 4 -90 -47 -42 -80 -47 -348 -47 l-257 0 7 -157 c9 -209 24 -445 37 -566 9
-87 8 -102 -8 -134 -10 -20 -31 -46 -46 -57 -53 -39 -151 -15 -181 43 -36 69
-63 479 -91 1401 -23 751 -17 1145 20 1268 19 62 66 119 103 125 53 8 708 -4
738 -14z m-318 -2922 c3 -22 8 -27 32 -27 45 0 60 -23 60 -91 0 -52 -2 -59
-20 -59 -16 0 -19 8 -22 58 -3 50 -6 57 -25 60 -22 3 -23 0 -23 -57 0 -54 -2
-61 -20 -61 -19 0 -20 7 -20 106 0 95 2 105 18 102 10 -2 18 -14 20 -31z m322
-6 c0 -14 8 -21 27 -23 17 -2 29 -10 31 -20 3 -14 -3 -18 -28 -18 -29 0 -31
-2 -28 -32 2 -25 9 -34 28 -38 14 -3 26 -14 28 -23 3 -13 -4 -17 -32 -17 -45
0 -66 22 -66 71 0 21 -4 39 -10 39 -5 0 -10 9 -10 20 0 11 5 20 10 20 6 0 10
9 10 20 0 13 7 20 20 20 13 0 20 -7 20 -19z m-942 -42 c2 -12 -5 -14 -33 -11
-47 6 -44 -11 5 -31 32 -12 40 -21 40 -40 0 -13 -6 -30 -14 -36 -21 -17 -100
-10 -104 9 -2 12 6 15 38 12 51 -5 52 11 3 35 -41 19 -52 45 -32 69 17 20 93
15 97 -7z m72 -39 c4 -47 8 -55 27 -58 20 -3 22 1 25 55 2 46 7 59 21 61 15 3
17 -6 17 -72 l0 -76 -46 0 c-74 0 -84 10 -84 86 0 57 2 65 18 62 13 -2 18 -16
22 -58z m200 40 c0 -15 -7 -20 -25 -20 -24 0 -25 -3 -25 -55 0 -48 -2 -55 -20
-55 -18 0 -20 7 -20 69 0 64 2 70 23 74 52 10 67 7 67 -13z m132 3 c13 -12 18
-31 18 -75 l0 -58 -54 0 c-55 0 -86 16 -86 45 0 20 40 45 73 45 19 0 27 4 24
13 -2 7 -21 12 -45 11 -37 -1 -40 1 -31 18 13 23 75 24 101 1z m153 -3 c0 -10
-8 -14 -23 -12 -32 5 -52 -15 -52 -49 0 -22 6 -30 23 -34 13 -4 30 -5 38 -3 8
2 14 -4 14 -12 0 -10 -12 -16 -37 -18 -48 -4 -78 24 -78 73 0 49 30 77 78 73
25 -2 37 -8 37 -18z m296 -1 c16 -16 19 -30 17 -72 l-3 -52 -53 -3 c-60 -3
-82 8 -82 44 0 28 26 44 71 44 28 0 30 2 18 16 -9 11 -23 14 -46 11 -35 -6
-41 1 -21 21 19 19 76 14 99 -9z"/>
<path d="M2382 628 c7 -20 58 -23 58 -4 0 11 -10 16 -31 16 -20 0 -29 -4 -27
-12z"/>
<path d="M2830 625 c0 -10 10 -15 30 -15 20 0 30 5 30 15 0 10 -10 15 -30 15
-20 0 -30 -5 -30 -15z"/>
</g>
</svg>
